<?xml version="1.0" standalone="no"?>
<!DOCTYPE svg PUBLIC "-//W3C//DTD SVG 20010904//EN"
 "http://www.w3.org/TR/2001/REC-SVG-20010904/DTD/svg10.dtd">
<svg version="1.0" xmlns="http://www.w3.org/2000/svg"
 width="2000.000000pt" height="1500.000000pt" viewBox="0 0 2000.000000 1500.000000"
 preserveAspectRatio="xMidYMid meet">
<metadata>
Created by potrace 1.16, written by Peter Selinger 2001-2019
</metadata>
<g transform="translate(0.000000,1500.000000) scale(0.100000,-0.100000)"
fill="#000000" stroke="none">
<path d="M9760 12494 c-1025 -92 -1903 -679 -2376 -1589 -151 -291 -251 -615
-300 -975 -21 -153 -24 -524 -6 -685 154 -1331 1175 -2387 2495 -2580 892
-130 1804 163 2456 790 862 830 1133 2096 686 3210 -350 872 -1103 1525 -2020
1751 -234 57 -379 75 -650 79 -132 1 -260 1 -285 -1z m-399 -1627 c35 -27 39
-54 39 -246 l0 -191 959 0 960 0 26 -22 c23 -21 40 -81 165 -595 77 -315 140
-585 140 -602 0 -40 -49 -81 -96 -81 l-34 0 0 -413 0 -414 -26 -24 -26 -24
-1473 0 -1473 0 -26 24 -26 24 0 414 0 413 -34 0 c-47 0 -96 41 -96 81 0 17
63 287 140 602 163 667 140 617 275 617 l84 0 3 199 c3 195 4 200 27 225 l24
26 226 0 c162 -1 231 -4 242 -13z"/>
<path d="M9010 10570 l0 -140 110 0 110 0 0 140 0 140 -110 0 -110 0 0 -140z"/>
<path d="M8757 10231 c-3 -16 -9 -40 -13 -55 l-6 -26 503 0 504 0 43 49 c23
28 42 52 42 55 0 3 -240 6 -534 6 l-533 0 -6 -29z"/>
<path d="M10206 10205 l48 -55 499 0 499 0 -6 26 c-4 15 -10 39 -13 55 l-5 29
-535 0 -534 0 47 -55z"/>
<path d="M9772 9923 l-221 -258 -1 -623 0 -623 68 3 67 3 5 393 5 394 24 19
c21 18 42 19 276 19 234 0 255 -1 276 -19 l24 -19 5 -394 5 -393 68 -3 67 -3
0 623 0 623 -215 255 c-118 140 -218 256 -223 258 -5 1 -108 -113 -230 -255z"/>
<path d="M8616 9652 c-44 -180 -81 -333 -84 -339 -3 -10 85 -13 422 -13 l426
0 0 206 c0 136 4 213 12 227 6 12 53 70 105 129 51 59 93 109 93 113 0 3 -201
5 -447 5 l-448 0 -79 -328z"/>
<path d="M10412 9963 c8 -10 50 -61 95 -113 44 -53 85 -105 91 -117 8 -14 12
-91 12 -227 l0 -206 426 0 c337 0 425 3 422 13 -3 6 -40 159 -84 339 l-79 328
-449 0 c-427 0 -448 -1 -434 -17z"/>
<path d="M8640 8775 l0 -355 44 0 45 0 3 208 3 207 29 53 c89 160 289 190 416
62 71 -70 80 -107 80 -337 l0 -193 60 0 60 0 0 355 0 355 -370 0 -370 0 0
-355z"/>
<path d="M10610 8775 l0 -355 49 0 49 0 4 208 3 207 30 54 c47 85 134 139 226
140 71 1 137 -26 189 -79 71 -70 80 -107 80 -337 l0 -193 55 0 55 0 0 355 0
355 -370 0 -370 0 0 -355z"/>
<path d="M9860 8765 l0 -315 135 0 135 0 0 315 0 315 -135 0 -135 0 0 -315z"/>
<path d="M8951 8846 c-45 -25 -50 -49 -51 -243 l0 -183 96 0 95 0 -3 196 -3
196 -28 24 c-31 27 -69 30 -106 10z"/>
<path d="M10931 8846 c-45 -25 -50 -49 -51 -243 l0 -183 95 0 95 0 0 191 0
191 -29 29 c-32 32 -70 37 -110 15z"/>
<path d="M5305 5743 c-38 -1 -128 -7 -200 -14 -156 -14 -192 -29 -231 -95
l-27 -46 6 -780 c6 -625 10 -785 21 -812 7 -18 31 -47 52 -64 88 -72 218 -42
273 65 7 15 11 124 11 336 l0 315 93 7 c52 4 150 6 218 4 117 -4 127 -6 179
-35 63 -36 118 -106 151 -193 11 -31 43 -143 70 -248 26 -106 56 -204 65 -218
24 -37 116 -79 159 -72 55 9 102 36 128 75 40 58 42 94 12 225 -61 274 -121
439 -200 548 -19 27 -35 53 -35 58 0 4 18 21 40 36 187 130 257 374 163 574
-35 74 -129 166 -218 213 -162 85 -434 130 -730 121z m377 -377 c112 -20 189
-50 229 -87 28 -26 31 -34 26 -70 -6 -48 -31 -77 -95 -112 -95 -52 -182 -69
-362 -72 -91 -1 -188 -6 -216 -9 l-51 -7 -7 47 c-3 26 -6 109 -6 185 l0 138
28 5 c55 9 369 -3 454 -18z"/>
<path d="M8661 5730 c-253 -53 -440 -212 -482 -411 -19 -89 -7 -217 29 -292
73 -156 200 -239 573 -371 228 -82 297 -115 343 -166 42 -47 47 -89 16 -150
-24 -46 -62 -75 -138 -103 -74 -27 -267 -29 -353 -4 -105 31 -135 71 -145 198
-4 56 -13 97 -27 122 -60 108 -215 107 -292 -2 -25 -36 -30 -54 -33 -115 -8
-148 40 -269 147 -377 114 -114 266 -174 473 -186 442 -25 788 266 739 621
-12 86 -31 135 -78 198 -76 104 -238 195 -518 291 -263 90 -342 132 -375 198
-61 118 32 207 225 217 191 10 338 -69 395 -211 23 -57 30 -64 80 -90 45 -23
63 -27 99 -23 117 16 182 112 161 242 -29 176 -190 327 -420 394 -59 17 -108
23 -225 26 -82 1 -170 -1 -194 -6z"/>
<path d="M9894 5721 c-190 -6 -191 -6 -227 -34 -49 -38 -68 -78 -68 -144 0
-68 32 -123 91 -153 35 -18 58 -20 232 -20 l193 0 -3 -666 c-3 -662 -3 -666
18 -710 31 -64 71 -88 150 -92 55 -3 70 0 100 20 47 32 76 78 85 135 4 26 4
229 0 452 -4 223 -4 508 0 633 l7 227 207 3 208 3 37 29 c55 41 76 82 76 144
0 81 -36 135 -112 167 -32 13 -94 15 -420 13 -211 -1 -469 -4 -574 -7z"/>
<path d="M12435 5721 c-199 -6 -211 -9 -257 -58 -67 -71 -64 -178 8 -245 47
-43 73 -48 275 -48 l190 0 -6 -302 c-3 -167 -2 -475 2 -685 8 -365 9 -383 29
-410 39 -52 81 -73 149 -73 53 0 68 4 102 29 75 54 73 36 73 709 0 328 3 627
7 665 l6 67 189 0 c238 0 277 13 319 105 38 81 12 173 -62 222 l-43 28 -395 1
c-218 0 -481 -2 -586 -5z"/>
<path d="M6764 5710 c-55 -13 -101 -48 -124 -95 -36 -75 -43 -221 -44 -915 -1
-611 0 -647 18 -680 23 -44 64 -88 97 -106 22 -11 138 -15 576 -20 l550 -7 47
22 c67 33 100 92 94 170 -5 69 -32 113 -88 141 -37 19 -60 20 -388 20 -192 0
-396 3 -454 6 l-106 7 -1 198 -1 199 393 0 c361 0 395 2 433 19 129 59 139
236 18 307 l-41 24 -401 0 -402 0 0 93 c0 52 3 135 6 185 l7 92 444 0 c494 0
489 -1 540 67 27 35 41 110 29 157 -9 37 -56 87 -101 107 -37 17 -76 19 -555
18 -283 -1 -529 -4 -546 -9z"/>
<path d="M11540 5713 c-53 -8 -88 -25 -119 -57 -26 -27 -84 -166 -326 -792
-197 -507 -295 -771 -295 -796 0 -136 147 -222 265 -155 56 31 74 63 141 247
48 131 63 164 82 171 13 5 141 9 286 9 l263 0 79 -182 c86 -198 113 -235 183
-257 114 -34 231 51 231 167 0 49 -99 311 -390 1032 -141 348 -221 535 -239
553 -43 47 -102 69 -161 60z m94 -838 l63 -170 -135 -3 c-74 -1 -136 -1 -138
1 -2 2 29 84 68 182 39 98 73 175 75 169 2 -5 32 -85 67 -179z"/>
<path d="M13917 5709 c-54 -13 -84 -36 -113 -85 -41 -70 -48 -194 -48 -919
l-1 -650 29 -53 c20 -36 44 -62 71 -78 l42 -24 565 -3 564 -2 37 25 c106 72
102 235 -8 297 -39 22 -45 23 -391 23 -193 0 -399 3 -457 7 l-107 6 0 199 0
198 390 0 c329 0 396 2 427 15 48 20 71 41 94 87 40 78 10 179 -65 223 l-43
25 -401 0 -402 0 0 108 c0 60 3 143 6 185 l7 76 456 3 456 3 33 23 c87 62 97
197 20 269 -56 53 -57 53 -610 52 -282 -1 -530 -5 -551 -10z"/>
<path d="M7550 3398 c-30 -15 -53 -37 -67 -63 -22 -39 -23 -47 -23 -368 0
-360 2 -371 59 -420 44 -36 102 -50 193 -45 132 8 182 58 195 194 l6 64 -52 0
-51 0 0 -59 c0 -49 -5 -65 -24 -87 -20 -24 -33 -28 -88 -32 -76 -5 -119 12
-137 55 -7 18 -11 77 -9 163 l3 135 178 3 177 2 0 153 c-1 219 -14 261 -100
305 -36 18 -61 22 -130 22 -69 0 -94 -4 -130 -22z m212 -69 c41 -22 48 -48 48
-187 l0 -133 -127 3 -128 3 0 137 c0 127 2 139 21 159 37 36 133 45 186 18z"/>
<path d="M8240 3398 c-61 -31 -90 -88 -90 -175 l0 -63 44 0 44 0 4 64 c5 75
22 101 79 116 52 14 118 -2 147 -35 20 -24 22 -36 22 -161 l0 -134 -117 0
c-104 0 -123 -3 -157 -23 -65 -37 -76 -70 -76 -230 0 -117 3 -144 20 -176 25
-50 86 -81 158 -81 67 0 116 20 159 66 l34 36 16 -41 c11 -28 22 -41 35 -41
18 0 19 14 16 398 l-3 397 -24 34 c-36 50 -91 71 -186 71 -64 0 -90 -5 -125
-22z m248 -592 c-3 -134 -3 -135 -33 -166 -16 -18 -42 -38 -57 -46 -39 -20
-111 -18 -139 5 -23 18 -24 27 -27 146 -5 179 7 192 176 194 l84 1 -4 -134z"/>
<path d="M9766 3410 c-41 -13 -94 -68 -106 -110 -6 -19 -10 -172 -10 -345 0
-279 2 -314 19 -350 34 -75 92 -104 206 -104 152 0 224 65 225 202 l0 57 -44
0 -44 0 -4 -61 c-4 -54 -9 -66 -36 -90 -29 -26 -40 -29 -97 -29 -57 0 -68 3
-97 29 l-33 29 0 149 0 148 178 3 177 2 0 163 c0 89 -5 178 -10 198 -12 42
-51 82 -102 103 -41 17 -172 20 -222 6z m195 -85 c39 -21 51 -69 47 -200 l-3
-110 -130 0 -130 0 -3 95 c-4 108 3 170 21 194 32 43 134 54 198 21z"/>
<path d="M10449 3410 c-73 -22 -119 -90 -119 -176 0 -102 10 -116 185 -294 90
-91 166 -175 170 -188 4 -13 7 -44 7 -69 0 -36 -6 -51 -26 -72 -22 -22 -37
-26 -101 -29 -74 -4 -75 -4 -110 31 -34 34 -35 37 -35 111 l0 76 -45 0 -45 0
0 -82 c0 -152 53 -208 205 -216 100 -5 159 10 201 52 57 57 68 168 26 256 -9
19 -85 101 -169 183 -105 103 -156 160 -164 184 -15 46 -6 111 19 135 46 47
167 42 210 -7 19 -22 22 -38 22 -106 l0 -79 46 0 46 0 -4 99 c-4 116 -17 142
-88 179 -36 18 -60 22 -125 21 -44 0 -92 -4 -106 -9z"/>
<path d="M11630 3398 c-67 -35 -84 -65 -89 -159 l-3 -79 46 0 46 0 0 59 c0 44
5 65 21 84 24 31 83 50 130 41 87 -17 101 -45 97 -207 l-3 -122 -127 -5 c-141
-6 -164 -15 -203 -81 -17 -29 -20 -52 -20 -169 0 -115 3 -141 20 -175 26 -52
89 -85 162 -85 68 0 110 18 156 65 l36 37 17 -41 c11 -28 22 -41 35 -41 18 0
19 14 19 383 0 377 0 383 -22 427 -34 65 -87 90 -192 90 -65 0 -91 -5 -126
-22z m248 -580 c3 -136 -5 -161 -70 -208 -55 -40 -127 -42 -163 -5 -24 23 -25
30 -25 148 0 176 9 186 175 183 l80 -1 3 -117z"/>
<path d="M12820 3398 c-30 -15 -53 -37 -67 -63 -22 -39 -23 -47 -23 -368 0
-359 2 -371 59 -420 74 -62 237 -65 322 -6 37 26 57 73 65 152 l7 67 -52 0
-51 0 0 -59 c0 -86 -25 -113 -109 -119 -36 -3 -73 1 -91 8 -51 21 -60 52 -60
210 l0 140 180 0 180 0 0 139 c0 223 -17 276 -100 319 -36 18 -61 22 -130 22
-69 0 -94 -4 -130 -22z m212 -69 c41 -22 48 -48 48 -186 l0 -133 -131 0 -131
0 4 140 c3 127 5 141 24 161 37 36 133 45 186 18z"/>
<path d="M6810 2960 l0 -440 50 0 50 0 0 155 0 156 57 -3 57 -3 79 -152 79
-153 49 0 49 0 -81 162 c-50 99 -77 164 -70 166 23 8 72 55 87 84 21 40 30
233 15 313 -14 74 -34 103 -91 133 -40 20 -59 22 -187 22 l-143 0 0 -440z
m245 360 c22 -5 50 -21 63 -35 21 -24 22 -35 22 -166 0 -190 -14 -209 -161
-209 l-69 0 0 210 0 210 53 0 c28 0 70 -5 92 -10z"/>
<path d="M8850 2960 l0 -440 170 0 170 0 0 40 0 40 -125 0 -125 0 0 400 0 400
-45 0 -45 0 0 -440z"/>
<path d="M11020 3009 c0 -432 1 -437 64 -482 44 -31 161 -32 203 -1 52 39 65
75 71 195 l5 109 -52 0 -51 0 0 -103 c0 -90 -3 -106 -20 -125 -30 -32 -82 -30
-109 4 -20 26 -21 38 -21 375 l0 349 100 0 100 0 0 35 0 35 -145 0 -145 0 0
-391z"/>
<path d="M12212 3008 c3 -372 4 -395 23 -427 35 -60 67 -76 150 -76 129 0 165
47 165 218 l0 107 -45 0 -45 0 0 -99 c0 -84 -3 -102 -21 -125 -27 -34 -79 -36
-109 -4 -19 21 -20 33 -20 375 l0 353 100 0 100 0 0 35 0 35 -151 0 -150 0 3
-392z"/>
</g>
</svg>
